Coordinates
version=1
nRows=13
nColumns=36
inDegrees=yes

Units are S.I. units (second, meters, Newtons, ...)
If the header above contains a line with 'inDegrees', this indicates whether rotational values are in degrees (yes) or radians (no).

endheader
time	pelvis_tilt	pelvis_list	pelvis_rotation	pelvis_tx	pelvis_ty	pelvis_tz	hip_flexion_r	hip_adduction_r	hip_rotation_r	knee_angle_r	knee_angle_r_beta	ankle_angle_r	subtalar_angle_r	mtp_angle_r	hip_flexion_l	hip_adduction_l	hip_rotation_l	knee_angle_l	knee_angle_l_beta	ankle_angle_l	subtalar_angle_l	mtp_angle_l	lumbar_extension	lumbar_bending	lumbar_rotation	arm_flex_r	arm_add_r	arm_rot_r	elbow_flex_r	pro_sup_r	arm_flex_l	arm_add_l	arm_rot_l	elbow_flex_l	pro_sup_l
      0.00000000	      8.82235529	      6.23009420	     12.25438874	      0.55578027	      1.00599274	      0.10437422	     -9.20817726	     -0.73403613	     -2.05422255	      9.92977186	      0.17330721	     19.13932791	      6.51200572	     -6.50628623	     17.28710992	      1.21588576	      2.51477555	     16.83634758	      0.29384970	     19.49582784	      2.26006734	     -6.50628623	    -13.24091944	      0.55830439	     -6.68934209	     18.51196475	    -11.96530709	     55.71144422	    121.07135321	     88.47029541	     17.73103391	     -4.78799004	     60.73865039	    116.44630627	    101.78358491
      0.01666670	     10.02686831	      4.11297905	     12.24844620	      0.55043650	      1.00167586	      0.09977273	     -9.76629367	      2.36765235	      1.59306313	      9.27036425	      0.16179838	     17.81870266	      1.82457998	     -6.66248326	     15.50069452	     -1.54482013	      4.72786334	     10.54374386	      0.18402305	     20.36259466	      5.65649731	     -6.66248326	    -14.83394276	      4.88643934	     -4.15404598	     22.95323186	    -15.21878478	     63.15511911	    123.36250492	    102.87323500	     19.69734857	     -5.48832896	     59.55432472	    119.93901059	    109.29935907
      0.03333330	      9.93698630	      4.72205301	      9.97857820	      0.55005420	      1.00358013	      0.10405156	     -9.06314243	      1.44027381	      1.58276603	     10.14724973	      0.17710292	     17.85112261	      1.62220539	     -6.67844918	     14.17753176	     -1.96848408	      2.10824876	      6.59635710	      0.11512815	     18.84322772	      7.56274432	     -6.67844918	    -14.79979189	      4.11734501	     -2.27199722	     23.41479909	    -12.68298683	     61.61382020	    123.02571672	    103.41377066	     20.35510244	     -6.42302075	     59.61884698	    120.65785755	    110.19689909
      0.05000000	      8.61148128	      5.67059178	      9.31179555	      0.55233527	      0.99999784	      0.10557918	     -7.22751435	      0.10616271	      0.99919748	     11.03565377	      0.19260849	     18.79194368	      1.68209025	     -6.80986474	     14.76930977	     -1.40039406	      0.53709589	      5.60184801	      0.09777069	     18.75553514	      9.80298561	     -6.80986474	    -13.30992112	      2.76764243	     -1.25838366	     22.68405787	    -11.21579062	     60.52902483	    122.28586974	    105.44000000	     21.22513033	     -6.61463621	     60.40457326	    121.01529020	    112.14015208
      0.06666670	      7.29913730	      6.50781705	      9.04981665	      0.54750168	      0.99864022	      0.10914011	     -5.14394691	     -0.98835538	      0.29602262	     12.23447605	      0.21353189	     19.25670857	      1.81297292	     -6.82729659	     16.06713059	     -0.66740495	     -0.42265570	      5.96817895	      0.10416437	     18.46579580	     10.74811647	     -6.82729659	    -12.36694603	      1.66218298	     -0.90287687	     22.62118964	    -10.08219269	     60.73335877	    121.12401003	    105.71123380	     21.76903970	     -6.77656442	     60.72224928	    121.44410893	    111.94166945
      0.08333330	      6.18629355	      7.37959205	      9.09495711	      0.54799747	      0.99777686	      0.10947103	     -3.14545728	     -2.06064876	     -0.35333142	     13.84117605	      0.24157409	     19.74218026	      1.77496320	     -6.98371689	     17.68901882	      0.16067182	     -1.43182073	      7.70781752	      0.13452679	     18.41544270	     11.39635334	     -6.98371689	    -11.62971025	      0.65613815	     -1.10501838	     22.63981879	     -9.25405323	     61.13852569	    120.10875834	    105.81829252	     22.18065616	     -7.05408846	     60.56906115	    121.69073215	    111.13987538
      0.10000000	      5.41119319	      8.13954691	      9.10558529	      0.54794385	      0.99813819	      0.11007313	     -1.50251253	     -2.98425509	     -0.81742419	     15.43471986	      0.26938668	     20.14472741	      1.73717176	     -7.12909168	     18.97754491	      0.85334880	     -2.39709484	      9.62776092	      0.16803613	     18.14593290	     11.73553538	     -7.12909168	    -11.10256613	     -0.19795692	     -1.19140954	     22.56391702	     -8.68739799	     61.44726879	    119.23660188	    105.23646784	     22.22566422	     -7.21426866	     60.31033765	    121.78856388	    110.41310956
      0.11666670	      4.91749114	      8.71298156	      9.13298517	      0.54853798	      1.00075773	      0.11030956	     -0.42425292	     -3.67577623	     -0.99709716	     16.61381827	      0.28996583	     20.45822332	      1.67865700	     -7.19613824	     19.81240706	      1.33566374	     -3.46492036	     11.30397609	      0.19729160	     17.74229361	     12.25460062	     -7.19613824	    -10.61884971	     -0.86105816	     -1.21206484	     22.39104083	     -8.46812306	     61.61276069	    118.43303792	    104.32930044	     22.14961312	     -7.34632486	     60.19194212	    121.44527540	    109.37161040
      0.13333330	      4.71997227	      9.03450583	      9.03625908	      0.54825888	      1.00121795	      0.11071877	      0.29017134	     -4.04082519	     -0.92790425	     17.55337190	      0.30636413	     20.76678058	      1.59477558	     -7.25672440	     20.16851752	      1.54350117	     -4.04663652	     12.62896127	      0.22041696	     17.26219386	     12.47697958	     -7.25672440	    -10.44837200	     -1.20554456	     -1.17200351	     22.38401369	     -8.30513039	     61.68236574	    117.88383723	    103.94851327	     22.07889438	     -7.47646200	     60.08026853	    121.24681206	    108.88274958
      0.15000000	      4.88518150	      9.18906389	      8.94908524	      0.54319943	      1.00328495	      0.11349545	      0.50950771	     -4.15110155	     -0.98322150	     18.12200746	      0.31628870	     20.75172655	      1.63677037	     -7.25763936	     20.12858934	      1.57520781	     -4.30283076	     13.75382209	      0.24004948	     16.47390795	     12.57912415	     -7.25763936	    -10.81982526	     -1.43205914	     -1.08181478	     22.55414797	     -8.29473572	     61.59444485	    117.55903893	    103.93953819	     22.22227048	     -7.60973323	     59.98505887	    121.00556381	    108.85103037
      0.16666670	      4.65268460	      9.18452883	      8.80256025	      0.54219128	      1.00031954	      0.11377357	      1.41100326	     -4.16988754	     -0.85048918	     19.10677867	      0.33347620	     21.07984895	      1.85091132	     -7.30709546	     20.77320440	      1.35856149	     -5.01754681	     15.10072259	      0.26355733	     16.25659411	     12.82928090	     -7.30709546	    -10.56497364	     -1.54444123	     -1.03404401	     23.05101903	     -8.07201531	     61.55833352	    116.90652684	    102.93760663	     22.61281163	     -7.59525577	     59.78001572	    120.66710220	    107.46312401
      0.18333330	      4.57949162	      9.11374283	      8.70568944	      0.54189671	      1.00116982	      0.11359191	      1.98319176	     -4.10526207	     -0.76785278	     19.73437518	      0.34442982	     21.20181550	      1.97391806	     -7.32399204	     21.17793523	      1.15502311	     -5.26398431	     16.11007985	      0.28117394	     16.02814844	     12.78857247	     -7.32399204	    -10.59994490	     -1.51105725	     -0.94015523	     23.24624689	     -8.07571584	     61.50721182	    116.94062143	    101.85371819	     22.68452274	     -7.58921072	     59.65079398	    120.60859584	    106.72698610
      0.20000000	      4.85136007	      9.10079629	      8.51918361	      0.54206083	      0.99994618	      0.11406519	      1.93533946	     -4.03297551	     -0.76080466	     19.95277635	      0.34824164	     21.39807208	      2.30447391	     -7.34938682	     20.99843649	      1.01622041	     -5.29836814	     16.69084296	      0.29131016	     15.71025298	     12.47527097	     -7.34938682	    -10.87479672	     -1.55703300	     -0.75165048	     23.48378036	     -8.05533241	     61.28212050	    116.98949848	    102.86673988	     22.87063212	     -7.57285579	     59.85432033	    120.50838996	    106.06993544
